<svg xmlns="http://www.w3.org/2000/svg" width="23pt" height="23pt" viewBox="0 0 23 23"><path d="M18.723 0H4.078A4.086 4.086 0 000 4.078v14.645A4.086 4.086 0 004.078 22.8h14.645a4.086 4.086 0 004.078-4.078V4.078A4.086 4.086 0 0018.723 0zm2.742 18.723a2.746 2.746 0 01-2.742 2.742H4.078a2.746 2.746 0 01-2.742-2.742V4.078a2.746 2.746 0 012.742-2.742h14.645a2.746 2.746 0 012.742 2.742zm0 0"/><path d="M19.27 5.008H9.098a2.108 2.108 0 00-1.993-1.43c-.921 0-1.707.602-1.984 1.43h-1.59a.668.668 0 100 1.336h1.59a2.096 2.096 0 001.984 1.433c.926 0 1.711-.601 1.993-1.433H19.27a.669.669 0 100-1.336zM7.105 6.44a.763.763 0 11.002-1.53.763.763 0 01-.002 1.53zm12.165 4.294h-1.586a2.105 2.105 0 00-1.989-1.433c-.925 0-1.71.601-1.992 1.433H3.531a.665.665 0 100 1.332h10.172a2.106 2.106 0 001.992 1.434c.922 0 1.707-.602 1.989-1.434h1.586a.668.668 0 00.671-.664c0-.37-.3-.668-.671-.668zm-3.575 1.43a.764.764 0 010-1.527.763.763 0 010 1.527zm3.575 4.293h-7.313a2.094 2.094 0 00-1.988-1.43c-.922 0-1.707.598-1.989 1.43H3.531a.668.668 0 100 1.336h4.45a2.101 2.101 0 001.988 1.43c.926 0 1.71-.598 1.988-1.43h7.313c.37 0 .671-.3.671-.668a.67.67 0 00-.671-.668zm-9.301 1.43a.763.763 0 11.002-1.526.763.763 0 01-.002 1.526zm0 0"/></svg>