<?xml version="1.0" encoding="UTF-8"?>
<svg xmlns="http://www.w3.org/2000/svg" xmlns:xlink="http://www.w3.org/1999/xlink" width="23pt" height="23pt" viewBox="0 0 23 23" version="1.1">
<g id="surface1">
<path style=" stroke:none;fill-rule:nonzero;fill:rgb(0%,0%,0%);fill-opacity:1;" d="M 18.722656 0 L 4.078125 0 C 1.832031 0 0 1.832031 0 4.078125 L 0 18.722656 C 0 20.96875 1.832031 22.800781 4.078125 22.800781 L 18.722656 22.800781 C 20.96875 22.800781 22.800781 20.96875 22.800781 18.722656 L 22.800781 4.078125 C 22.800781 1.832031 20.96875 0 18.722656 0 Z M 21.464844 18.722656 C 21.464844 20.234375 20.234375 21.464844 18.722656 21.464844 L 4.078125 21.464844 C 2.566406 21.464844 1.335938 20.234375 1.335938 18.722656 L 1.335938 4.078125 C 1.335938 2.566406 2.566406 1.335938 4.078125 1.335938 L 18.722656 1.335938 C 20.234375 1.335938 21.464844 2.566406 21.464844 4.078125 Z M 21.464844 18.722656 "/>
<path style=" stroke:none;fill-rule:nonzero;fill:rgb(0%,0%,0%);fill-opacity:1;" d="M 19.269531 5.007812 L 9.097656 5.007812 C 8.816406 4.179688 8.03125 3.578125 7.105469 3.578125 C 6.183594 3.578125 5.398438 4.179688 5.121094 5.007812 L 3.53125 5.007812 C 3.160156 5.007812 2.863281 5.308594 2.863281 5.675781 C 2.863281 6.046875 3.160156 6.34375 3.53125 6.34375 L 5.121094 6.34375 C 5.398438 7.175781 6.183594 7.777344 7.105469 7.777344 C 8.03125 7.777344 8.816406 7.175781 9.097656 6.34375 L 19.269531 6.34375 C 19.640625 6.34375 19.941406 6.046875 19.941406 5.675781 C 19.941406 5.308594 19.640625 5.007812 19.269531 5.007812 Z M 7.105469 6.441406 C 6.6875 6.441406 6.34375 6.097656 6.34375 5.675781 C 6.34375 5.253906 6.6875 4.914062 7.105469 4.914062 C 7.527344 4.914062 7.867188 5.253906 7.867188 5.675781 C 7.867188 6.097656 7.527344 6.441406 7.105469 6.441406 Z M 7.105469 6.441406 "/>
<path style=" stroke:none;fill-rule:nonzero;fill:rgb(0%,0%,0%);fill-opacity:1;" d="M 19.269531 10.734375 L 17.683594 10.734375 C 17.402344 9.902344 16.617188 9.300781 15.695312 9.300781 C 14.769531 9.300781 13.984375 9.902344 13.703125 10.734375 L 3.53125 10.734375 C 3.160156 10.734375 2.863281 11.03125 2.863281 11.402344 C 2.863281 11.769531 3.160156 12.066406 3.53125 12.066406 L 13.703125 12.066406 C 13.984375 12.898438 14.769531 13.5 15.695312 13.5 C 16.617188 13.5 17.402344 12.898438 17.683594 12.066406 L 19.269531 12.066406 C 19.640625 12.066406 19.941406 11.769531 19.941406 11.402344 C 19.941406 11.03125 19.640625 10.734375 19.269531 10.734375 Z M 15.695312 12.164062 C 15.273438 12.164062 14.933594 11.824219 14.933594 11.402344 C 14.933594 10.980469 15.273438 10.636719 15.695312 10.636719 C 16.113281 10.636719 16.457031 10.980469 16.457031 11.402344 C 16.457031 11.824219 16.113281 12.164062 15.695312 12.164062 Z M 15.695312 12.164062 "/>
<path style=" stroke:none;fill-rule:nonzero;fill:rgb(0%,0%,0%);fill-opacity:1;" d="M 19.269531 16.457031 L 11.957031 16.457031 C 11.679688 15.625 10.894531 15.027344 9.96875 15.027344 C 9.046875 15.027344 8.261719 15.625 7.980469 16.457031 L 3.53125 16.457031 C 3.160156 16.457031 2.863281 16.757812 2.863281 17.125 C 2.863281 17.492188 3.160156 17.792969 3.53125 17.792969 L 7.980469 17.792969 C 8.261719 18.625 9.046875 19.222656 9.96875 19.222656 C 10.894531 19.222656 11.679688 18.625 11.957031 17.792969 L 19.269531 17.792969 C 19.640625 17.792969 19.941406 17.492188 19.941406 17.125 C 19.941406 16.757812 19.640625 16.457031 19.269531 16.457031 Z M 9.96875 17.886719 C 9.550781 17.886719 9.207031 17.546875 9.207031 17.125 C 9.207031 16.707031 9.550781 16.363281 9.96875 16.363281 C 10.390625 16.363281 10.730469 16.703125 10.730469 17.125 C 10.730469 17.546875 10.390625 17.886719 9.96875 17.886719 Z M 9.96875 17.886719 "/>
</g>
</svg>
